<svg class="diagram-root" style="background: #f5f6f6" xmlns="http://www.w3.org/2000/svg" xmlns:xlink="http://www.w3.org/1999/xlink"><style>.diagram-root { font-family: "Helvetica Neue", sans-serif; font-size: 12px; } .t { overflow: visible; } .t-bg { y: 40; fill: #fff;   } .th { fill: #005aa0;   } .tht { fill: #fff; font-size: 14px;  } .tf { fill: #323c46; overflow: visible; } .tf.pk { fill: #005aa0; font-weight: bold; } .tf.fk { font-weight: bold; } .ty { fill: #adb1b5; font-weight: normal; text-anchor: end; } .r { fill: transparent; stroke: #c3c3c3; stroke-width: 1; } .l { stroke: 1; } .i { fill: #c2c7ce; stroke: #c2c7ce; } .i.ix { fill: #afb3b6; stroke: #000; } .fa { fill: transparent; overflow: visible; } .fa .bg.hover { fill: #f7f7f7; } .c { cy: 12; r: 4; stroke: #d2d2dc; fill: #d2d2dc; } .hr { fill: transparent; stroke: #323c46; stroke-opacity: 0.035; stroke-width: 13; } .dc { stroke: #fa5a3c; fill: #fa5a3c; } .x { stroke: white; stroke-width: 1; } .hl .th { fill: #1b9bff; } .hl .tht {  } .fhl .bg { fill: #e7f4ff; } .fhls .bg {  } .r.hl { stroke: #1b9bff; } .dim { opacity: 0.25; }</style><g class="drawing-wrapper" transform="translate(-51, -54) scale(1,1)"><g class="rs"><path d="M 797.04 241 m -1, 0 a 1,1 0 1,0 2,0 a 1,1 0 1,0 -2,0 M 797.04 241 m -0.5, 0 a 0.5,0.5 0 1,0 1,0 a 0.5,0.5 0 1,0 -1,0  M797.04 241 L797.04 241 809.04 241 M 797.04 247 m -1, 0 a 1,1 0 1,0 2,0 a 1,1 0 1,0 -2,0 M 797.04 247 m -0.5, 0 a 0.5,0.5 0 1,0 1,0 a 0.5,0.5 0 1,0 -1,0  M797.04 247 L797.04 247 804.04 241 797.04 235 M 797.04 235 m -1, 0 a 1,1 0 1,0 2,0 a 1,1 0 1,0 -2,0 M 797.04 235 m -0.5, 0 a 0.5,0.5 0 1,0 1,0 a 0.5,0.5 0 1,0 -1,0  M809.04 241 Q 828.28 241, 847.52 205 T 886 169 M 898 169 m -1, 0 a 1,1 0 1,0 2,0 a 1,1 0 1,0 -2,0 M 898 169 m -0.5, 0 a 0.5,0.5 0 1,0 1,0 a 0.5,0.5 0 1,0 -1,0  M898 169 L898 169 886 169 M892 175 L892 175 892 163" id="h2664183828" class="r"></path><path d="M 797.04 266 m -1, 0 a 1,1 0 1,0 2,0 a 1,1 0 1,0 -2,0 M 797.04 266 m -0.5, 0 a 0.5,0.5 0 1,0 1,0 a 0.5,0.5 0 1,0 -1,0  M797.04 266 L797.04 266 809.04 266 M 797.04 272 m -1, 0 a 1,1 0 1,0 2,0 a 1,1 0 1,0 -2,0 M 797.04 272 m -0.5, 0 a 0.5,0.5 0 1,0 1,0 a 0.5,0.5 0 1,0 -1,0  M797.04 272 L797.04 272 804.04 266 797.04 260 M 797.04 260 m -1, 0 a 1,1 0 1,0 2,0 a 1,1 0 1,0 -2,0 M 797.04 260 m -0.5, 0 a 0.5,0.5 0 1,0 1,0 a 0.5,0.5 0 1,0 -1,0  M809.04 266 Q 828.53 266, 848.02 281.5 T 887 297 M 899 297 m -1, 0 a 1,1 0 1,0 2,0 a 1,1 0 1,0 -2,0 M 899 297 m -0.5, 0 a 0.5,0.5 0 1,0 1,0 a 0.5,0.5 0 1,0 -1,0  M899 297 L899 297 887 297 M893 303 L893 303 893 291" id="h686000034" class="r"></path><path d="M 480.13 247 m -1, 0 a 1,1 0 1,0 2,0 a 1,1 0 1,0 -2,0 M 480.13 247 m -0.5, 0 a 0.5,0.5 0 1,0 1,0 a 0.5,0.5 0 1,0 -1,0  M480.13 247 L480.13 247 492.13 247 M 480.13 253 m -1, 0 a 1,1 0 1,0 2,0 a 1,1 0 1,0 -2,0 M 480.13 253 m -0.5, 0 a 0.5,0.5 0 1,0 1,0 a 0.5,0.5 0 1,0 -1,0  M480.13 253 L480.13 253 487.13 247 480.13 241 M 480.13 241 m -1, 0 a 1,1 0 1,0 2,0 a 1,1 0 1,0 -2,0 M 480.13 241 m -0.5, 0 a 0.5,0.5 0 1,0 1,0 a 0.5,0.5 0 1,0 -1,0  M492.13 247 Q 516.35 247, 540.57 194 T 589 141 M 601 141 m -1, 0 a 1,1 0 1,0 2,0 a 1,1 0 1,0 -2,0 M 601 141 m -0.5, 0 a 0.5,0.5 0 1,0 1,0 a 0.5,0.5 0 1,0 -1,0  M601 141 L601 141 589 141 M595 147 L595 147 595 135" id="h3168312299" class="r"></path><path d="M 361 272 m -1, 0 a 1,1 0 1,0 2,0 a 1,1 0 1,0 -2,0 M 361 272 m -0.5, 0 a 0.5,0.5 0 1,0 1,0 a 0.5,0.5 0 1,0 -1,0  M361 272 L361 272 349 272 M 361 278 m -1, 0 a 1,1 0 1,0 2,0 a 1,1 0 1,0 -2,0 M 361 278 m -0.5, 0 a 0.5,0.5 0 1,0 1,0 a 0.5,0.5 0 1,0 -1,0  M361 278 L361 278 354 272 361 266 M 361 266 m -1, 0 a 1,1 0 1,0 2,0 a 1,1 0 1,0 -2,0 M 361 266 m -0.5, 0 a 0.5,0.5 0 1,0 1,0 a 0.5,0.5 0 1,0 -1,0  M349 272 Q 332.01 272, 315.02 229.5 T 281.04 187 M 269.04 187 m -1, 0 a 1,1 0 1,0 2,0 a 1,1 0 1,0 -2,0 M 269.04 187 m -0.5, 0 a 0.5,0.5 0 1,0 1,0 a 0.5,0.5 0 1,0 -1,0  M269.04 187 L269.04 187 281.04 187 M275.04 193 L275.04 193 275.04 181" id="h4204302839" class="r"></path></g><g class="hrs"></g><g class="ts"><svg width="196.04" height="275" x="601" y="84" id="h13109213" class="t"><rect height="40" width="196.04" class="th"></rect><text x="13" y="25" class="tht">FILM</text><rect height="235" width="196.04" class="t-bg"></rect><text x="13" y="61" class="tf pk">ID<tspan x="183.04" class="ty">int</tspan></text><path d="M7,14A2,2 0 0,1 5,12A2,2 0 0,1 7,10A2,2 0 0,1 9,12A2,2 0 0,1 7,14M12.65,10C11.83,7.67 9.61,6 7, 6A6, 6 0 0, 0 1, 12A6, 6 0 0, 0 7, 18C9.61, 18 11.83, 16.33 12.65, 14H17V18H21V14H23V10H12.65Z" class="i pk" transform="translate(150.366171875, 48) scale(0.65)"></path><text x="13" y="86" class="tf">TITLE<tspan x="183.04" class="ty">varchar(300)</tspan></text><path d="M22,18V22H18V19H15V16H12L9.74,13.74C9.19,13.91 8.61,14 8,14A6,6 0 0,1 2,8A6,6 0 0,1 8,2A6,6 0 0,1 14,8C14,8.61 13.91, 9.19 13.74, 9.74L22, 18M7, 5A2, 2 0 0, 0 5, 7A2, 2 0 0, 0 7, 9A2, 2 0 0, 0 9, 7A2, 2 0 0, 0 7, 5Z" class="i uq" transform="translate(99.01265624999999, 75.5) scale(0.5)"></path><text x="13" y="111" class="tf">YEAR<tspan x="183.04" class="ty">int</tspan></text><text x="13" y="136" class="tf">DIRECTOR<tspan x="183.04" class="ty">varchar(100)</tspan></text><text x="13" y="161" class="tf fk">GENRE_ID<tspan x="183.04" class="ty">int</tspan></text><text x="13" y="186" class="tf fk">COUNTRY_ID<tspan x="183.04" class="ty">int</tspan></text><text x="13" y="211" class="tf">IMAGE<tspan x="183.04" class="ty">varchar(250)</tspan></text><text x="13" y="236" class="tf">IMDB<tspan x="183.04" class="ty">varchar(250)</tspan></text><text x="13" y="261" class="tf">DESCRIPTION<tspan x="183.04" class="ty">varchar(500)</tspan></text></svg><svg width="119.13" height="125" x="361" y="165" id="h1108520625" class="t"><rect height="40" width="119.13" class="th"></rect><text x="13" y="25" class="tht">FILM_ACTOR</text><rect height="85" width="119.13" class="t-bg"></rect><text x="13" y="61" class="tf pk">ID<tspan x="106.13" class="ty">int</tspan></text><path d="M7,14A2,2 0 0,1 5,12A2,2 0 0,1 7,10A2,2 0 0,1 9,12A2,2 0 0,1 7,14M12.65,10C11.83,7.67 9.61,6 7, 6A6, 6 0 0, 0 1, 12A6, 6 0 0, 0 7, 18C9.61, 18 11.83, 16.33 12.65, 14H17V18H21V14H23V10H12.65Z" class="i pk" transform="translate(73.456171875, 48) scale(0.65)"></path><text x="13" y="86" class="tf fk">FILM_ID<tspan x="106.13" class="ty">int</tspan></text><text x="13" y="111" class="tf fk">ACTOR_ID<tspan x="106.13" class="ty">int</tspan></text></svg><svg width="196.04" height="175" x="73" y="130" id="h4182929346" class="t"><rect height="40" width="196.04" class="th"></rect><text x="13" y="25" class="tht">ACTOR</text><rect height="135" width="196.04" class="t-bg"></rect><text x="13" y="61" class="tf pk">ID<tspan x="183.04" class="ty">int</tspan></text><path d="M7,14A2,2 0 0,1 5,12A2,2 0 0,1 7,10A2,2 0 0,1 9,12A2,2 0 0,1 7,14M12.65,10C11.83,7.67 9.61,6 7, 6A6, 6 0 0, 0 1, 12A6, 6 0 0, 0 7, 18C9.61, 18 11.83, 16.33 12.65, 14H17V18H21V14H23V10H12.65Z" class="i pk" transform="translate(150.366171875, 48) scale(0.65)"></path><text x="13" y="86" class="tf">NAME<tspan x="183.04" class="ty">varchar(150)</tspan></text><path d="M22,18V22H18V19H15V16H12L9.74,13.74C9.19,13.91 8.61,14 8,14A6,6 0 0,1 2,8A6,6 0 0,1 8,2A6,6 0 0,1 14,8C14,8.61 13.91, 9.19 13.74, 9.74L22, 18M7, 5A2, 2 0 0, 0 5, 7A2, 2 0 0, 0 7, 9A2, 2 0 0, 0 9, 7A2, 2 0 0, 0 7, 5Z" class="i uq" transform="translate(99.01265624999999, 75.5) scale(0.5)"></path><text x="13" y="111" class="tf">IMAGE<tspan x="183.04" class="ty">varchar(250)</tspan></text><text x="13" y="136" class="tf">IMDB<tspan x="183.04" class="ty">varchar(250)</tspan></text><text x="13" y="161" class="tf">DESCRIPTION<tspan x="183.04" class="ty">varchar(500)</tspan></text></svg><svg width="164.7" height="100" x="899" y="240" id="h1977686622" class="t"><rect height="40" width="164.7" class="th"></rect><text x="13" y="25" class="tht">COUNTRY</text><rect height="60" width="164.7" class="t-bg"></rect><text x="13" y="61" class="tf pk">ID<tspan x="151.7" class="ty">int</tspan></text><path d="M7,14A2,2 0 0,1 5,12A2,2 0 0,1 7,10A2,2 0 0,1 9,12A2,2 0 0,1 7,14M12.65,10C11.83,7.67 9.61,6 7, 6A6, 6 0 0, 0 1, 12A6, 6 0 0, 0 7, 18C9.61, 18 11.83, 16.33 12.65, 14H17V18H21V14H23V10H12.65Z" class="i pk" transform="translate(119.02617187499999, 48) scale(0.65)"></path><text x="13" y="86" class="tf">NAME<tspan x="151.7" class="ty">varchar(150)</tspan></text><path d="M22,18V22H18V19H15V16H12L9.74,13.74C9.19,13.91 8.61,14 8,14A6,6 0 0,1 2,8A6,6 0 0,1 8,2A6,6 0 0,1 14,8C14,8.61 13.91, 9.19 13.74, 9.74L22, 18M7, 5A2, 2 0 0, 0 5, 7A2, 2 0 0, 0 7, 9A2, 2 0 0, 0 9, 7A2, 2 0 0, 0 7, 5Z" class="i uq" transform="translate(67.67265624999999, 75.5) scale(0.5)"></path></svg><svg width="164.7" height="100" x="898" y="112" id="h17663445" class="t"><rect height="40" width="164.7" class="th"></rect><text x="13" y="25" class="tht">GENRE</text><rect height="60" width="164.7" class="t-bg"></rect><text x="13" y="61" class="tf pk">ID<tspan x="151.7" class="ty">int</tspan></text><path d="M7,14A2,2 0 0,1 5,12A2,2 0 0,1 7,10A2,2 0 0,1 9,12A2,2 0 0,1 7,14M12.65,10C11.83,7.67 9.61,6 7, 6A6, 6 0 0, 0 1, 12A6, 6 0 0, 0 7, 18C9.61, 18 11.83, 16.33 12.65, 14H17V18H21V14H23V10H12.65Z" class="i pk" transform="translate(119.02617187499999, 48) scale(0.65)"></path><text x="13" y="86" class="tf">NAME<tspan x="151.7" class="ty">varchar(100)</tspan></text><path d="M22,18V22H18V19H15V16H12L9.74,13.74C9.19,13.91 8.61,14 8,14A6,6 0 0,1 2,8A6,6 0 0,1 8,2A6,6 0 0,1 14,8C14,8.61 13.91, 9.19 13.74, 9.74L22, 18M7, 5A2, 2 0 0, 0 5, 7A2, 2 0 0, 0 7, 9A2, 2 0 0, 0 9, 7A2, 2 0 0, 0 7, 5Z" class="i uq" transform="translate(67.67265624999999, 75.5) scale(0.5)"></path></svg></g></g><text class="qdbd-link" x="10" y="20">www.quickdatabasediagrams.com</text></svg>